<?xml version="1.0" encoding="UTF-8"?>
<!DOCTYPE svg PUBLIC "-//W3C//DTD SVG 1.1//EN" "http://www.w3.org/Graphics/SVG/1.1/DTD/svg11.dtd">
<svg xmlns="http://www.w3.org/2000/svg" version="1.1" width="600px" height="600px" style="shape-rendering:geometricPrecision; text-rendering:geometricPrecision; image-rendering:optimizeQuality; fill-rule:evenodd; clip-rule:evenodd" xmlns:xlink="http://www.w3.org/1999/xlink">
<g><path style="opacity:0.996" fill="#5bfee3" d="M 276.5,-0.5 C 292.167,-0.5 307.833,-0.5 323.5,-0.5C 431.442,11.5304 512.275,64.5304 566,158.5C 583.34,192.347 594.507,228.013 599.5,265.5C 599.5,288.5 599.5,311.5 599.5,334.5C 584.528,437.599 531.862,514.765 441.5,566C 407.653,583.34 371.987,594.507 334.5,599.5C 311.5,599.5 288.5,599.5 265.5,599.5C 153.096,582.729 72.5957,523.063 24,420.5C 10.6758,389.35 2.50912,357.017 -0.5,323.5C -0.5,307.833 -0.5,292.167 -0.5,276.5C 10.6827,172.547 60.6827,93.3806 149.5,39C 189.132,16.8431 231.465,3.67647 276.5,-0.5 Z"/></g>
<g><path style="opacity:1" fill="#020404" d="M 326.5,154.5 C 328.167,154.5 329.833,154.5 331.5,154.5C 331.333,167.837 331.5,181.171 332,194.5C 332.717,193.956 333.217,193.289 333.5,192.5C 343.166,180.85 355.166,177.684 369.5,183C 376.149,186.314 380.649,191.481 383,198.5C 383.5,214.163 383.667,229.83 383.5,245.5C 381.5,245.5 379.5,245.5 377.5,245.5C 377.667,230.83 377.5,216.163 377,201.5C 372.082,188.955 362.915,184.121 349.5,187C 338.673,190.654 333.006,198.154 332.5,209.5C 331.505,221.322 331.172,233.322 331.5,245.5C 329.833,245.5 328.167,245.5 326.5,245.5C 326.5,215.167 326.5,184.833 326.5,154.5 Z"/></g>
<g><path style="opacity:1" fill="#1a473f" d="M 326.5,154.5 C 328.265,153.539 330.265,153.205 332.5,153.5C 332.171,166.677 332.505,179.677 333.5,192.5C 333.217,193.289 332.717,193.956 332,194.5C 331.5,181.171 331.333,167.837 331.5,154.5C 329.833,154.5 328.167,154.5 326.5,154.5 Z"/></g>
<g><path style="opacity:1" fill="#040a08" d="M 245.5,155.5 C 252.632,155.789 254.298,158.956 250.5,165C 245.932,166.65 243.266,165.15 242.5,160.5C 243.092,158.577 244.092,156.911 245.5,155.5 Z"/></g>
<g><path style="opacity:1" fill="#050b0a" d="M 103.5,160.5 C 104.449,159.848 105.615,159.514 107,159.5C 108.658,159.675 109.991,160.342 111,161.5C 119.401,186.203 127.901,210.869 136.5,235.5C 145.398,210.306 154.398,185.14 163.5,160C 165.81,159.503 168.143,159.337 170.5,159.5C 178.559,185.009 187.226,210.343 196.5,235.5C 205.1,210.865 213.6,186.199 222,161.5C 223.754,159.75 225.921,159.083 228.5,159.5C 219.16,188.176 209.827,216.843 200.5,245.5C 197.833,245.5 195.167,245.5 192.5,245.5C 184.434,219.969 175.767,194.635 166.5,169.5C 157.17,194.324 148.337,219.324 140,244.5C 137.534,245.777 135.034,245.777 132.5,244.5C 122.802,216.402 113.135,188.402 103.5,160.5 Z"/></g>
<g><path style="opacity:1" fill="#020403" d="M 278.5,167.5 C 280.5,167.5 282.5,167.5 284.5,167.5C 284.5,172.167 284.5,176.833 284.5,181.5C 291.167,181.5 297.833,181.5 304.5,181.5C 304.5,183.167 304.5,184.833 304.5,186.5C 297.833,186.5 291.167,186.5 284.5,186.5C 284.045,202.904 284.545,219.237 286,235.5C 286.833,237.667 288.333,239.167 290.5,240C 296.052,241.196 301.219,240.363 306,237.5C 309.689,241.313 308.856,243.813 303.5,245C 296.499,247.455 289.832,246.788 283.5,243C 281.57,240.742 280.07,238.242 279,235.5C 278.5,219.17 278.333,202.837 278.5,186.5C 274.5,186.5 270.5,186.5 266.5,186.5C 266.5,184.833 266.5,183.167 266.5,181.5C 270.5,181.5 274.5,181.5 278.5,181.5C 278.5,176.833 278.5,172.167 278.5,167.5 Z"/></g>
<g><path style="opacity:1" fill="#3ca695" d="M 278.5,167.5 C 278.5,172.167 278.5,176.833 278.5,181.5C 274.5,181.5 270.5,181.5 266.5,181.5C 269.962,180.518 273.629,180.185 277.5,180.5C 277.182,175.968 277.515,171.634 278.5,167.5 Z"/></g>
<g><path style="opacity:1" fill="#000000" d="M 244.5,181.5 C 246.5,181.5 248.5,181.5 250.5,181.5C 250.5,202.833 250.5,224.167 250.5,245.5C 248.5,245.5 246.5,245.5 244.5,245.5C 244.5,224.167 244.5,202.833 244.5,181.5 Z"/></g>
<g><path style="opacity:1" fill="#19473f" d="M 332.5,209.5 C 332.5,221.833 332.5,234.167 332.5,246.5C 330.265,246.795 328.265,246.461 326.5,245.5C 328.167,245.5 329.833,245.5 331.5,245.5C 331.172,233.322 331.505,221.322 332.5,209.5 Z"/></g>
<g><path style="opacity:1" fill="#34b8bb" d="M 119.5,370.5 C 119.5,336.167 119.5,301.833 119.5,267.5C 128.833,267.5 138.167,267.5 147.5,267.5C 147.167,274.926 147.501,281.592 148.5,287.5C 168.549,264.906 192.882,259.073 221.5,270C 228.951,273.39 235.285,278.223 240.5,284.5C 234.509,290.323 228.343,295.989 222,301.5C 212.341,290.792 200.508,287.292 186.5,291C 171.396,299.056 165.896,311.556 170,328.5C 179.172,348.116 193.672,353.282 213.5,344C 216.63,341.872 219.463,339.372 222,336.5C 228,341.833 234,347.167 240,352.5C 239.107,355.436 237.274,357.936 234.5,360C 219.328,371.238 202.328,375.238 183.5,372C 169.329,369.004 157.829,361.837 149,350.5C 148.5,357.158 148.334,363.825 148.5,370.5C 138.833,370.5 129.167,370.5 119.5,370.5 Z"/></g>
<g><path style="opacity:1" fill="#34b8ba" d="M 395.5,320.5 C 395.56,321.043 395.893,321.376 396.5,321.5C 397.5,303.512 397.833,285.512 397.5,267.5C 406.833,267.5 416.167,267.5 425.5,267.5C 424.842,294.188 425.509,320.521 427.5,346.5C 420.679,347.329 413.679,347.829 406.5,348C 399.805,350.191 395.805,354.691 394.5,361.5C 382.24,346.731 369.74,332.064 357,317.5C 356.5,335.164 356.333,352.83 356.5,370.5C 346.833,370.5 337.167,370.5 327.5,370.5C 327.5,367.167 327.5,363.833 327.5,360.5C 338.123,357.716 342.123,351.216 339.5,341C 328.144,340.522 322.477,346.022 322.5,357.5C 302.651,372.697 280.651,376.531 256.5,369C 254.004,367.92 251.67,366.586 249.5,365C 255.2,358.438 260.033,351.271 264,343.5C 274.912,350.176 285.745,350.01 296.5,343C 306.909,333.204 310.076,321.37 306,307.5C 298.376,292.173 286.209,286.673 269.5,291C 267.246,292.377 265.08,293.877 263,295.5C 259.181,287.362 254.014,280.195 247.5,274C 253.24,269.974 259.574,267.307 266.5,266C 290.504,261.89 310.671,268.723 327,286.5C 327.5,280.175 327.666,273.842 327.5,267.5C 335.84,267.334 344.173,267.5 352.5,268C 366.722,285.623 381.055,303.123 395.5,320.5 Z"/></g>
<g><path style="opacity:1" fill="#3fccc6" d="M 148.5,287.5 C 147.501,281.592 147.167,274.926 147.5,267.5C 138.167,267.5 128.833,267.5 119.5,267.5C 119.5,301.833 119.5,336.167 119.5,370.5C 118.502,336.004 118.168,301.337 118.5,266.5C 128.5,266.5 138.5,266.5 148.5,266.5C 148.5,273.5 148.5,280.5 148.5,287.5 Z"/></g>
<g><path style="opacity:1" fill="#47dace" d="M 425.5,267.5 C 416.167,267.5 406.833,267.5 397.5,267.5C 397.833,285.512 397.5,303.512 396.5,321.5C 395.893,321.376 395.56,321.043 395.5,320.5C 396.497,302.674 396.83,284.674 396.5,266.5C 406.348,266.173 416.014,266.506 425.5,267.5 Z"/></g>
<g><path style="opacity:1" fill="#020505" d="M 411.5,370.5 C 413.39,368.41 415.057,366.077 416.5,363.5C 410.228,363.348 403.895,363.181 397.5,363C 396.473,362.487 395.473,361.987 394.5,361.5C 395.805,354.691 399.805,350.191 406.5,348C 413.679,347.829 420.679,347.329 427.5,346.5C 431.395,340.591 435.728,334.925 440.5,329.5C 445.027,327.865 449.027,328.699 452.5,332C 449.707,336.418 447.041,340.918 444.5,345.5C 448.796,346.328 453.129,346.828 457.5,347C 461.368,349.162 462.868,352.328 462,356.5C 460.581,357.46 459.081,358.293 457.5,359C 449.019,359.268 440.686,360.435 432.5,362.5C 421.732,380.451 411.565,398.785 402,417.5C 400.71,421.73 400.21,426.064 400.5,430.5C 403.941,430.699 407.274,430.199 410.5,429C 417,423.833 423.5,418.667 430,413.5C 430.667,414.167 431.333,414.833 432,415.5C 432.535,420.916 434.368,425.749 437.5,430C 447.753,431.269 456.92,428.769 465,422.5C 465.749,421.365 465.583,420.365 464.5,419.5C 456.593,417.023 448.593,414.856 440.5,413C 431.402,409.972 428.235,403.805 431,394.5C 433.55,388.897 437.383,384.397 442.5,381C 454.511,372.496 467.844,367.663 482.5,366.5C 494.196,365.682 498.029,370.682 494,381.5C 489.538,387.211 483.705,389.378 476.5,388C 474.442,386.192 474.108,384.025 475.5,381.5C 462.571,382.964 451.904,388.631 443.5,398.5C 443.709,399.086 444.043,399.586 444.5,400C 452.979,401.467 461.312,403.467 469.5,406C 484.443,413.626 485.443,422.959 472.5,434C 460.27,441.856 446.937,445.19 432.5,444C 426.84,442.676 423.673,439.176 423,433.5C 414.271,443.304 403.771,446.137 391.5,442C 387.28,438.513 385.28,434.013 385.5,428.5C 387.573,416.451 391.74,405.118 398,394.5C 402.777,386.607 407.277,378.607 411.5,370.5 Z"/></g>
<g><path style="opacity:1" fill="#020605" d="M 327.5,360.5 C 324.966,360.741 323.3,359.741 322.5,357.5C 322.477,346.022 328.144,340.522 339.5,341C 342.123,351.216 338.123,357.716 327.5,360.5 Z"/></g>
<g><path style="opacity:1" fill="#33b5b8" d="M 394.5,361.5 C 395.473,361.987 396.473,362.487 397.5,363C 403.895,363.181 410.228,363.348 416.5,363.5C 415.057,366.077 413.39,368.41 411.5,370.5C 407.774,370.823 404.107,370.489 400.5,369.5C 398.066,367.079 396.066,364.412 394.5,361.5 Z"/></g>
<g><path style="opacity:1" fill="#020605" d="M 371.5,366.5 C 377.711,366.016 383.711,366.849 389.5,369C 392.785,375.071 391.785,380.404 386.5,385C 382.278,388.111 377.611,389.111 372.5,388C 370.38,386.477 370.047,384.644 371.5,382.5C 358.545,382.978 347.878,388.311 339.5,398.5C 339.709,399.086 340.043,399.586 340.5,400C 351.16,401.915 361.493,404.915 371.5,409C 378.495,414.635 379.328,421.135 374,428.5C 361.216,440.492 346.049,445.659 328.5,444C 324.175,442.844 320.842,440.344 318.5,436.5C 313.779,439.527 308.779,442.027 303.5,444C 292.716,446.854 284.883,443.354 280,433.5C 279.672,427.804 281.006,422.471 284,417.5C 288.667,409.5 293.333,401.5 298,393.5C 297.798,390.34 297.132,387.34 296,384.5C 300.959,378.535 306.792,373.702 313.5,370C 318.292,369.441 321.625,371.441 323.5,376C 314.975,392.887 305.808,409.387 296,425.5C 294.927,429.095 296.261,431.095 300,431.5C 302.634,431.066 305.134,430.233 307.5,429C 313.333,423.833 319.167,418.667 325,413.5C 327.251,416.017 328.084,419.017 327.5,422.5C 328.5,422.5 329.5,422.5 330.5,422.5C 330.083,427.916 332.583,430.583 338,430.5C 344.334,429.708 350.5,428.208 356.5,426C 358.286,425.215 359.786,424.049 361,422.5C 361.507,421.004 361.007,419.837 359.5,419C 351.885,416.795 344.218,414.795 336.5,413C 328.072,410.582 324.572,405.082 326,396.5C 329.053,388.782 334.219,382.948 341.5,379C 351.101,373.532 361.101,369.365 371.5,366.5 Z"/></g>
</svg>
