<?xml version="1.0" encoding="UTF-8"?>
<!DOCTYPE svg PUBLIC "-//W3C//DTD SVG 1.1//EN" "http://www.w3.org/Graphics/SVG/1.1/DTD/svg11.dtd">
<svg xmlns="http://www.w3.org/2000/svg" version="1.1" width="500px" height="500px" style="shape-rendering:geometricPrecision; text-rendering:geometricPrecision; image-rendering:optimizeQuality; fill-rule:evenodd; clip-rule:evenodd" xmlns:xlink="http://www.w3.org/1999/xlink">
<g><path style="opacity:0.993" fill="#000000" d="M 222.5,-0.5 C 240.167,-0.5 257.833,-0.5 275.5,-0.5C 375.643,14.6529 445.143,68.9862 484,162.5C 510.042,238.629 502.709,311.295 462,380.5C 411.851,456.885 340.851,496.219 249,498.5C 157.149,496.219 86.1493,456.885 36,380.5C 16.3414,348.021 4.17469,313.021 -0.5,275.5C -0.5,257.833 -0.5,240.167 -0.5,222.5C 13.7652,126.785 64.7652,58.6182 152.5,18C 175.128,8.67799 198.461,2.51132 222.5,-0.5 Z"/></g>
<g><path style="opacity:1" fill="#9a9a9a" d="M 277.5,114.5 C 277.5,143.5 277.5,172.5 277.5,201.5C 279.167,201.5 280.833,201.5 282.5,201.5C 282.171,188.656 282.505,175.989 283.5,163.5C 283.5,176.5 283.5,189.5 283.5,202.5C 281.167,202.5 278.833,202.5 276.5,202.5C 276.169,172.995 276.502,143.662 277.5,114.5 Z"/></g>
<g><path style="opacity:1" fill="#fafafa" d="M 277.5,114.5 C 279.167,114.5 280.833,114.5 282.5,114.5C 282.333,127.171 282.5,139.838 283,152.5C 283.717,151.956 284.217,151.289 284.5,150.5C 291.254,141.464 300.254,137.964 311.5,140C 322.694,141.408 329.361,147.574 331.5,158.5C 331.5,172.833 331.5,187.167 331.5,201.5C 329.833,201.5 328.167,201.5 326.5,201.5C 326.667,187.496 326.5,173.496 326,159.5C 324.264,152.763 320.097,148.263 313.5,146C 299.87,142.639 290.036,147.139 284,159.5C 283.51,160.793 283.343,162.127 283.5,163.5C 282.505,175.989 282.171,188.656 282.5,201.5C 280.833,201.5 279.167,201.5 277.5,201.5C 277.5,172.5 277.5,143.5 277.5,114.5 Z"/></g>
<g><path style="opacity:1" fill="#5a5a5a" d="M 282.5,114.5 C 283.167,126.5 283.833,138.5 284.5,150.5C 284.217,151.289 283.717,151.956 283,152.5C 282.5,139.838 282.333,127.171 282.5,114.5 Z"/></g>
<g><path style="opacity:1" fill="#eeeeee" d="M 199.5,115.5 C 207.045,116.062 208.378,119.229 203.5,125C 196.075,124.484 194.742,121.318 199.5,115.5 Z"/></g>
<g><path style="opacity:1" fill="#707070" d="M 69.5,119.5 C 67.2646,119.205 65.2646,119.539 63.5,120.5C 62.9569,120.44 62.6236,120.107 62.5,119.5C 64.9732,118.203 67.3066,118.203 69.5,119.5 Z"/></g>
<g><path style="opacity:1" fill="#f1f1f1" d="M 69.5,119.5 C 77.8273,143.481 86.1607,167.481 94.5,191.5C 103.26,167.722 111.927,143.888 120.5,120C 122.5,119.333 124.5,119.333 126.5,120C 135.389,143.999 143.889,168.166 152,192.5C 160.872,168.742 169.205,144.742 177,120.5C 179.139,119.231 181.305,119.231 183.5,120.5C 174.167,147.5 164.833,174.5 155.5,201.5C 153.305,202.769 151.139,202.769 149,201.5C 140.793,177.044 132.293,152.711 123.5,128.5C 114.904,152.453 106.404,176.453 98,200.5C 95.8938,202.291 93.3938,202.958 90.5,202.5C 81.8998,175.033 72.8998,147.7 63.5,120.5C 65.2646,119.539 67.2646,119.205 69.5,119.5 Z"/></g>
<g><path style="opacity:1" fill="#f3f3f3" d="M 236.5,126.5 C 236.5,131.167 236.5,135.833 236.5,140.5C 243.167,140.5 249.833,140.5 256.5,140.5C 256.5,142.167 256.5,143.833 256.5,145.5C 249.833,145.5 243.167,145.5 236.5,145.5C 236.333,160.17 236.5,174.837 237,189.5C 239.549,196.358 244.383,198.858 251.5,197C 253.615,196.443 255.615,195.609 257.5,194.5C 261.686,197.192 261.353,199.359 256.5,201C 244.215,205.936 235.715,202.436 231,190.5C 230.5,175.504 230.333,160.504 230.5,145.5C 226.833,145.5 223.167,145.5 219.5,145.5C 219.5,143.833 219.5,142.167 219.5,140.5C 223.167,140.5 226.833,140.5 230.5,140.5C 230.5,135.833 230.5,131.167 230.5,126.5C 232.5,126.5 234.5,126.5 236.5,126.5 Z"/></g>
<g><path style="opacity:1" fill="#515151" d="M 236.5,126.5 C 237.485,130.634 237.818,134.968 237.5,139.5C 244.022,139.177 250.355,139.51 256.5,140.5C 249.833,140.5 243.167,140.5 236.5,140.5C 236.5,135.833 236.5,131.167 236.5,126.5 Z"/></g>
<g><path style="opacity:1" fill="#fdfdfd" d="M 199.5,140.5 C 201.167,140.5 202.833,140.5 204.5,140.5C 204.5,160.833 204.5,181.167 204.5,201.5C 202.833,201.5 201.167,201.5 199.5,201.5C 199.5,181.167 199.5,160.833 199.5,140.5 Z"/></g>
<g><path style="opacity:1" fill="#d7d7d7" d="M 199.5,140.5 C 199.5,160.833 199.5,181.167 199.5,201.5C 201.167,201.5 202.833,201.5 204.5,201.5C 202.735,202.461 200.735,202.795 198.5,202.5C 198.169,181.66 198.503,160.993 199.5,140.5 Z"/></g>
<g><path style="opacity:1" fill="#c6c6c6" d="M 331.5,158.5 C 332.496,172.99 332.829,187.657 332.5,202.5C 330.265,202.795 328.265,202.461 326.5,201.5C 328.167,201.5 329.833,201.5 331.5,201.5C 331.5,187.167 331.5,172.833 331.5,158.5 Z"/></g>
<g><path style="opacity:1" fill="#5bfce2" d="M 107.5,303.5 C 107.217,302.711 106.717,302.044 106,301.5C 105.5,308.158 105.334,314.825 105.5,321.5C 96.5,321.5 87.5,321.5 78.5,321.5C 78.5,288.833 78.5,256.167 78.5,223.5C 87.5,223.5 96.5,223.5 105.5,223.5C 105.334,229.842 105.5,236.175 106,242.5C 124.924,220.706 148.091,214.873 175.5,225C 183.311,227.905 189.644,232.738 194.5,239.5C 188.842,244.989 183.009,250.323 177,255.5C 167.267,244.816 155.434,241.649 141.5,246C 126.691,255.089 122.191,267.923 128,284.5C 136.403,299.86 148.903,304.36 165.5,298C 169.41,296.093 172.744,293.427 175.5,290C 176.5,289.333 177.5,289.333 178.5,290C 183.708,295.376 189.041,300.543 194.5,305.5C 187.431,314.04 178.431,319.54 167.5,322C 143.468,328.152 123.468,321.985 107.5,303.5 Z"/></g>
<g><path style="opacity:1" fill="#5bfce1" d="M 276.5,240.5 C 276.56,241.043 276.893,241.376 277.5,241.5C 278.496,235.202 278.83,228.868 278.5,222.5C 286.174,222.334 293.841,222.5 301.5,223C 315.712,239.707 329.712,256.54 343.5,273.5C 343.56,274.043 343.893,274.376 344.5,274.5C 345.5,257.179 345.833,239.846 345.5,222.5C 354.5,222.5 363.5,222.5 372.5,222.5C 372.5,248.167 372.5,273.833 372.5,299.5C 365.837,299.974 359.171,300.474 352.5,301C 347.184,303.147 343.851,306.98 342.5,312.5C 330.459,299.127 318.792,285.461 307.5,271.5C 307.217,270.711 306.717,270.044 306,269.5C 305.5,286.83 305.333,304.163 305.5,321.5C 305.5,321.833 305.5,322.167 305.5,322.5C 296.5,322.5 287.5,322.5 278.5,322.5C 278.5,319.167 278.5,315.833 278.5,312.5C 285.741,310.419 290.074,305.586 291.5,298C 291.561,296.289 290.894,294.956 289.5,294C 279.013,292.982 273.68,297.815 273.5,308.5C 257.981,321.903 239.981,326.736 219.5,323C 213.703,321.903 208.369,319.736 203.5,316.5C 209.017,310.151 213.517,303.151 217,295.5C 228.393,302.401 239.559,301.901 250.5,294C 263.162,278.318 262.496,263.318 248.5,249C 237.483,242.837 226.65,243.004 216,249.5C 212.273,241.877 207.439,235.044 201.5,229C 221.557,218.014 241.891,217.68 262.5,228C 267.957,231.29 272.623,235.457 276.5,240.5 Z"/></g>
<g><path style="opacity:1" fill="#276e62" d="M 278.5,222.5 C 278.83,228.868 278.496,235.202 277.5,241.5C 276.893,241.376 276.56,241.043 276.5,240.5C 277.167,234.5 277.833,228.5 278.5,222.5 Z"/></g>
<g><path style="opacity:1" fill="#236358" d="M 345.5,222.5 C 345.833,239.846 345.5,257.179 344.5,274.5C 343.893,274.376 343.56,274.043 343.5,273.5C 344.167,256.5 344.833,239.5 345.5,222.5 Z"/></g>
<g><path style="opacity:1" fill="#48c9b4" d="M 105.5,223.5 C 96.5,223.5 87.5,223.5 78.5,223.5C 78.5,256.167 78.5,288.833 78.5,321.5C 87.5,321.5 96.5,321.5 105.5,321.5C 96.3483,322.494 87.015,322.827 77.5,322.5C 77.5,289.167 77.5,255.833 77.5,222.5C 87.015,222.173 96.3483,222.506 105.5,223.5 Z"/></g>
<g><path style="opacity:1" fill="#163e38" d="M 372.5,222.5 C 373.167,247.833 373.833,273.167 374.5,298.5C 374.158,299.338 373.492,299.672 372.5,299.5C 372.5,273.833 372.5,248.167 372.5,222.5 Z"/></g>
<g><path style="opacity:1" fill="#133630" d="M 307.5,271.5 C 306.833,288.167 306.167,304.833 305.5,321.5C 305.333,304.163 305.5,286.83 306,269.5C 306.717,270.044 307.217,270.711 307.5,271.5 Z"/></g>
<g><path style="opacity:1" fill="#f8f8f8" d="M 358.5,323.5 C 359.338,323.158 359.672,322.492 359.5,321.5C 361.39,319.41 363.057,317.077 364.5,314.5C 357.172,314.574 349.838,314.24 342.5,313.5C 342.5,313.167 342.5,312.833 342.5,312.5C 343.851,306.98 347.184,303.147 352.5,301C 359.171,300.474 365.837,299.974 372.5,299.5C 373.492,299.672 374.158,299.338 374.5,298.5C 378.207,292.612 382.541,287.112 387.5,282C 390.167,281.333 392.833,281.333 395.5,282C 397.363,283.418 397.863,285.251 397,287.5C 395.03,290.968 392.864,294.301 390.5,297.5C 394.459,298.327 398.459,298.827 402.5,299C 404.858,301.025 406.858,303.358 408.5,306C 407.339,308.593 405.339,310.259 402.5,311C 394.776,311.35 387.109,312.184 379.5,313.5C 368.296,331.554 358.129,350.221 349,369.5C 348.502,372.817 348.335,376.15 348.5,379.5C 352.463,379.911 356.13,379.078 359.5,377C 365.311,372.69 370.977,368.19 376.5,363.5C 378.183,368.989 380.516,374.156 383.5,379C 393.036,379.574 401.869,377.408 410,372.5C 410.49,371.207 410.657,369.873 410.5,368.5C 400.689,366.131 391.022,363.298 381.5,360C 375.366,354.059 374.866,347.559 380,340.5C 395.715,323.708 414.882,316.874 437.5,320C 439.523,323.183 440.023,326.683 439,330.5C 434.934,337.117 429.101,339.784 421.5,338.5C 418.936,336.684 418.936,334.851 421.5,333C 409.625,333.519 399.458,338.019 391,346.5C 390.51,347.793 390.343,349.127 390.5,350.5C 401.045,351.469 411.045,354.302 420.5,359C 427.464,364.289 428.297,370.455 423,377.5C 410.171,389.502 395.005,394.335 377.5,392C 373.29,390.623 370.624,387.79 369.5,383.5C 364.228,387.97 358.228,391.137 351.5,393C 336.33,392.143 330.83,384.31 335,369.5C 341.523,353.453 349.357,338.119 358.5,323.5 Z"/></g>
<g><path style="opacity:1" fill="#fafdfd" d="M 278.5,312.5 C 275.633,312.631 273.967,311.297 273.5,308.5C 273.68,297.815 279.013,292.982 289.5,294C 290.894,294.956 291.561,296.289 291.5,298C 290.074,305.586 285.741,310.419 278.5,312.5 Z"/></g>
<g><path style="opacity:1" fill="#19473f" d="M 107.5,303.5 C 106.833,309.5 106.167,315.5 105.5,321.5C 105.334,314.825 105.5,308.158 106,301.5C 106.717,302.044 107.217,302.711 107.5,303.5 Z"/></g>
<g><path style="opacity:1" fill="#65fbe2" d="M 342.5,313.5 C 349.838,314.24 357.172,314.574 364.5,314.5C 363.057,317.077 361.39,319.41 359.5,321.5C 356.167,321.5 352.833,321.5 349.5,321.5C 347.177,318.874 344.843,316.207 342.5,313.5 Z"/></g>
<g><path style="opacity:1" fill="#f9f9f9" d="M 305.5,322.5 C 309.57,321.644 313.57,320.477 317.5,319C 323.167,318.333 328.833,318.333 334.5,319C 336.329,319.273 337.829,320.107 339,321.5C 340.439,332.077 335.772,338.077 325,339.5C 320.526,339.542 319.026,337.542 320.5,333.5C 308.547,333.887 298.381,338.554 290,347.5C 289.383,348.449 289.549,349.282 290.5,350C 300.942,351.592 310.942,354.592 320.5,359C 327.556,367.186 326.89,374.852 318.5,382C 306.015,390.538 292.348,393.872 277.5,392C 273.699,390.699 271.032,388.199 269.5,384.5C 261.283,391.635 251.949,394.135 241.5,392C 234.805,388.442 231.971,382.942 233,375.5C 237.633,364.231 243.3,353.564 250,343.5C 249.333,340.833 248.667,338.167 248,335.5C 252.524,330.312 257.691,325.812 263.5,322C 269.088,320.072 272.422,321.905 273.5,327.5C 267.054,341.723 259.554,355.39 251,368.5C 245.353,380.515 248.52,383.348 260.5,377C 265.649,372.685 270.649,368.185 275.5,363.5C 276.086,363.709 276.586,364.043 277,364.5C 277.497,366.81 277.663,369.143 277.5,371.5C 278.822,371.33 279.989,371.663 281,372.5C 280.63,377.295 282.797,379.628 287.5,379.5C 295.614,378.933 303.114,376.6 310,372.5C 310.49,371.207 310.657,369.873 310.5,368.5C 300.522,366.737 290.855,363.904 281.5,360C 275.366,354.059 274.866,347.559 280,340.5C 287.076,332.387 295.576,326.387 305.5,322.5 Z"/></g>
<g><path style="opacity:1" fill="#367c6f" d="M 349.5,321.5 C 352.833,321.5 356.167,321.5 359.5,321.5C 359.672,322.492 359.338,323.158 358.5,323.5C 355.5,322.833 352.5,322.167 349.5,321.5 Z"/></g>
</svg>
